<?xml version="1.0" encoding="utf-8"?>
<svg version="1.1" xmlns="http://www.w3.org/2000/svg" xmlns:xlink="http://www.w3.org/1999/xlink" height="35" width="35">
  <defs>
    <path id="path-0" opacity="1" d="M34.98372258370116,15.166913477902018 C34.87433834617364,14.487150722536656 34.74151462917594,13.81520133217549 34.569625113061264,13.151065306818525 C34.350856638006235,12.30722188636497 34.06958288436405,11.471191830915615 33.72580385213471,10.666415235483058 C33.03043262785263,9.009981854592747 32.07722712939855,7.462935583761229 30.920879475536225,6.087783343022101 C29.670773903793172,4.611057357228381 28.162834057878108,3.337478861543849 26.49081785567177,2.3608082360189018 C24.842241132935616,1.3919509754981552 23.045214373554977,0.7043748551285922 21.17005601594039,0.32151996992281295 C20.201224197839522,0.12618584481782338 19.224579219915263,0.008985369754829662 18.23230792234421,0.00117200475062997 C17.458805099828194,-0.006641360253569723 16.685302277312175,0.02461209976322849 15.919612614619556,0.09493238480102516 C13.92725685965406,0.2902665099060147 11.958340584158746,0.8450154252041852 10.145687505131315,1.6966722106619394 C8.590868700275891,2.4311285210566997 7.145434132947981,3.38435905156905 5.864075921911351,4.525110342182188 C4.582717710874719,5.665861632795326 3.4654358561293623,6.994133683509255 2.566922476439041,8.455232939294575 C1.5746511788679902,10.08041286016809 0.8324009956455509,11.854046716121394 0.4261166848290582,13.713627587120893 C0.09796397224650583,15.198166937918813 -0.05829922422137586,16.729586478741933 0.01983237401256485,18.253192654560852 C0.09015081242311161,19.729918640354573 0.3167324473015404,21.206644626148297 0.7620825572350042,22.62086369190842 C1.0433563108771917,23.51940066739137 1.3793221832831377,24.39449754786172 1.8012328137464195,25.246154333319478 C2.2153302843863063,26.08218438876883 2.6997461934367406,26.886960984201387 3.238854221250933,27.64485738960875 C4.317070276879319,29.15283683541927 5.629681127209526,30.488922251137392 7.129807813301195,31.59060671672954 C8.661187138686437,32.723544642338474 10.387895459656532,33.598641522808826 12.200548538683964,34.1768305331196 C14.091333215945335,34.77845963844297 16.09931529055762,35.059740778594154 18.08385788569972,34.98942049355635 C20.02152152190146,34.926913573522754 21.943558838456404,34.551872053321176 23.75621191748384,33.85648256794742 C25.49854655810072,33.18453317758625 27.13149696119009,32.22348928206971 28.561305208871207,31.020231071422966 C29.280115912623465,30.4107886010954 29.92079501814178,29.723212480725834 30.52240832454313,28.996569535335276 C31.13183479076787,28.26211322494052 31.67875597840546,27.488590089524756 32.13191924816232,26.652560034075403 C32.52257723933202,25.933730453689044 32.85072995191457,25.18364741328588 33.13200370555676,24.42575100787852 C33.27264058237785,24.05070948767694 33.40546429937555,23.67566796747536 33.514848536903074,23.284999717265382 C33.63204593425398,22.870891372042802 33.71799069231132,22.441156296811823 33.796122290545256,22.01923458658505 C33.91331968789617,21.355098561228086 33.96019864683654,20.667522440858523 33.897693368249385,19.99557305049736 C33.843001249485624,20.292480920656942 33.796122290545256,20.58157542581233 33.72580385213472,20.87066993096771 C33.63985909407738,21.206644626148297 33.530474856549866,21.534805956324675 33.40546429937555,21.85515392149686 C33.15544318502695,22.534916676862224 32.84291679209118,23.19123933721499 32.5460167188022,23.847561997567755 C32.163171887455896,24.683592053017108 31.717821777522428,25.480555283445465 31.233405868471994,26.254078418861226 C30.98338475412338,26.652560034075407 30.72555047995138,27.043228284285384 30.444276726309187,27.418269804486965 C30.163002972666998,27.793311324688542 29.842663419907844,28.15272611488172 29.522323867148685,28.5043275400707 C28.88164476163037,29.215343755452864 28.18627353734829,29.848226320793028 27.412770714832277,30.4107886010954 C26.62364157266947,30.988977611406167 25.787633471566306,31.496846336679138 24.904746411522773,31.91876804690592 C23.1389722914357,32.77823819736787 21.20912181505736,33.29392028764505 19.255831859208836,33.46581431773744 C17.25566294441995,33.63770834782983 15.216428230514088,33.44237422272484 13.294390913959138,32.87199857741827 C11.46611151528492,32.3328763921285 9.73159003449143,31.457779511658142 8.208023868929581,30.309214856040803 C6.731336662308096,29.19190366044026 5.449978451271465,27.816751419701138 4.442080834053626,26.261891783865416 C3.3873042578954236,24.675778688012908 2.6606803943197717,22.886518102051202 2.262209243326673,21.019123866047504 C2.16063816562255,20.53469523578713 2.082506567388609,20.034639875518355 2.02781444862485,19.542397880253784 C1.9809354896844853,19.120476170027008 1.9418696905675148,18.69074109479603 1.926243370920727,18.261006019565052 C1.902803891450545,17.3780957740905 1.957496010214303,16.46393206859915 2.090319727212003,15.588835188128797 C2.379406640677585,13.666747397095703 3.0044594265491122,11.8149798911004 3.973291244649981,10.127293050193291 C4.832738825223331,8.619313604382771 5.950020679968688,7.259788093652045 7.262631530298894,6.111223438034705 C8.575242380629104,4.954845417413169 10.075369066720771,4.025054981913418 11.700506309986745,3.3687323215606533 C12.638085488794037,2.9858774363548735 13.622543626541692,2.704596296203689 14.622628083936139,2.5170755361028987 C15.130483472456755,2.4233151560525035 15.63833886097737,2.345181506010508 16.146194249497988,2.3061146809895097 C16.396215363846597,2.2826745859769115 16.638423318371814,2.2826745859769115 16.888444432720426,2.2592344909643125 C16.99001551042455,2.2592344909643125 17.09158658812867,2.267047855968512 17.193157665832796,2.267047855968512 C18.888613347509313,2.235794395951714 20.59188218900923,2.454568616069302 22.209206272451805,2.9624373413422753 C23.95154091306869,3.5093728916362457 25.59230447598145,4.392283137110798 27.014299563839174,5.540847792728137 C28.50661309010745,6.744106003374873 29.74890550202711,8.228645354172793 30.686484680834404,9.900705465071502 C31.4834269828206,11.322737895835825 32.05378764992837,12.854157436658944 32.39756668215771,14.448083897515657 C32.47569828039165,14.815312052713038 32.53820355897881,15.18254020791042 32.60070883756596,15.5497683631078 C32.655400956329714,15.885743058288384 32.84291679209118,16.198277658456366 33.132003705556755,16.385798418557155 C33.741430171781495,16.79209339877553 34.593064592531455,16.518625623628548 34.88996466582043,15.862302963275784 C34.991535743524544,15.635715378153993 35.02278838281813,15.393501063023805 34.98372258370116,15.166913477902018Z"/>
  </defs>
  <g transform="translate(0, 0) " opacity="1">
    <g transform="translate(0, 0) ">
      <use xlink:href="#path-0" fill="rgb(0,0,0)" fill-opacity="1"/>
    </g>
  </g>
</svg>